<svg xmlns="http://www.w3.org/2000/svg" width="600" height="280" viewBox="0 0 600 280" fill="none">
  <title>同步卫星：空间轨道与8字形星下点轨迹</title>
  <defs><radialGradient id="bg"><stop stop-color="#2d2b4c"/><stop offset="1" stop-color="#0c192b"/></radialGradient><marker id="arrow" viewBox="0 0 10 10" refX="8" refY="5" markerWidth="6" markerHeight="6" orient="auto-start-reverse"><path d="M0 0 10 5 0 10Z" fill="context-stroke"/></marker></defs>
  <path fill="url(#bg)" d="M0 0H600V280H0Z"/>
  <g fill="#b7cfdd" opacity=".35"><circle cx="44" cy="91" r="1.3"/><circle cx="558" cy="47" r="1.5"/><circle cx="518" cy="239" r="1"/><circle cx="75" cy="241" r="1.5"/><circle cx="333" cy="28" r="1"/></g>
  <g font-family="system-ui, sans-serif" stroke-linecap="round" stroke-linejoin="round">

  <ellipse cx="158" cy="144" rx="98" ry="45" transform="rotate(-40 158 144)" stroke="#99b7f4" stroke-width="2.5"/>
  <g transform="translate(158 144)"><circle r="55" fill="#267f9e"/><path d="M-38.5 -22.0 Q-5.5 -49.5 8.25 -22.0 L0 0 24.75 11.0 5.5 39.6 -13.75 24.75 -11.0 0Z" fill="#70b8ab"/><circle r="55" fill="none" stroke="#95d9df" stroke-opacity=".5" stroke-width="2"/></g>
  <ellipse cx="158" cy="144" rx="55" ry="18" stroke="#b3e2e8" stroke-dasharray="3 5"/>
  <path d="M158 76V213" stroke="#b3e2e8" stroke-dasharray="3 5"/>
  <rect x="222" y="89" width="12" height="12" rx="2" fill="#e4eaff"/>
  <path d="m264 145 28 0" stroke="#768da7" stroke-width="2" marker-end="url(#arrow)"/>
  <rect x="323" y="55" width="222" height="178" rx="8" fill="#152d43" stroke="#52718c"/>
  <path d="M323 100H545M323 144H545M323 188H545M378 55V233M434 55V233M490 55V233" stroke="#37536c"/>
  <path d="M434 144C497 68 371 68 434 144C497 220 371 220 434 144" stroke="#e6b3f5" stroke-width="3.5"/>
  <circle cx="434" cy="144" r="5" fill="#ffda86"/>
  <text x="117" y="253" fill="#aabfe6" font-size="14">空间轨道</text><text x="389" y="253" fill="#e6b3f5" font-size="14">星下点轨迹</text>

  </g>
</svg>
